<svg xmlns="http://www.w3.org/2000/svg" viewBox="0 0 256 256" width="256" height="256">
  <defs>
    <linearGradient id="bg" x1="28" y1="20" x2="228" y2="236" gradientUnits="userSpaceOnUse">
      <stop stop-color="#ECFBFA"/>
      <stop offset="1" stop-color="#65D1C5"/>
    </linearGradient>
    <linearGradient id="shine" x1="72" y1="55" x2="190" y2="206" gradientUnits="userSpaceOnUse">
      <stop stop-color="#FFFFFF" stop-opacity=".96"/>
      <stop offset="1" stop-color="#FFFFFF" stop-opacity=".72"/>
    </linearGradient>
    <filter id="shadow" x="-30%" y="-30%" width="160%" height="180%">
      <feDropShadow dx="0" dy="8" stdDeviation="8" flood-color="#15263A" flood-opacity=".17"/>
    </filter>
    <filter id="soft" x="-30%" y="-30%" width="160%" height="160%">
      <feGaussianBlur stdDeviation="4"/>
    </filter>
  </defs>
  <rect x="20" y="20" width="216" height="216" rx="52" fill="url(#bg)"/>
  <circle cx="76" cy="47" r="5" fill="#FFCF5C"/>
  <circle cx="94" cy="47" r="5" fill="#FF8FA3"/>
  <circle cx="112" cy="47" r="5" fill="#66D9B3"/>
  <rect x="51" y="65" width="154" height="132" rx="30" fill="url(#shine)" stroke="#198A83" stroke-width="4" filter="url(#shadow)"/>
  
<path d="M88 84H165C173 84 178 90 178 98V168H101C93 168 88 162 88 154V84Z" fill="#fff" stroke="#24313C" stroke-width="6"/>
<path d="M111 84V168M111 141H178" stroke="#198A83" stroke-width="5"/>
<path d="M122 102H162M122 117H151M122 153H161" stroke="#8C9AA6" stroke-width="5" stroke-linecap="round"/>
<path d="M97 102H103M97 118H103" stroke="#FF647C" stroke-width="5" stroke-linecap="round"/>

</svg>