<svg xmlns="http://www.w3.org/2000/svg" viewBox="0 0 256 256" width="256" height="256">
  <defs>
    <linearGradient id="bg" x1="28" y1="20" x2="228" y2="236" gradientUnits="userSpaceOnUse">
      <stop stop-color="#FFF8E7"/>
      <stop offset="1" stop-color="#FFD26A"/>
    </linearGradient>
    <linearGradient id="shine" x1="72" y1="55" x2="190" y2="206" gradientUnits="userSpaceOnUse">
      <stop stop-color="#FFFFFF" stop-opacity=".96"/>
      <stop offset="1" stop-color="#FFFFFF" stop-opacity=".72"/>
    </linearGradient>
    <filter id="shadow" x="-30%" y="-30%" width="160%" height="180%">
      <feDropShadow dx="0" dy="8" stdDeviation="8" flood-color="#15263A" flood-opacity=".17"/>
    </filter>
    <filter id="soft" x="-30%" y="-30%" width="160%" height="160%">
      <feGaussianBlur stdDeviation="4"/>
    </filter>
  </defs>
  <rect x="20" y="20" width="216" height="216" rx="52" fill="url(#bg)"/>
  <circle cx="76" cy="47" r="5" fill="#FFCF5C"/>
  <circle cx="94" cy="47" r="5" fill="#FF8FA3"/>
  <circle cx="112" cy="47" r="5" fill="#66D9B3"/>
  <rect x="51" y="65" width="154" height="132" rx="30" fill="url(#shine)" stroke="#E89A12" stroke-width="4" filter="url(#shadow)"/>
  
<path d="M128 86C104 86 93 103 93 120C93 134 100 143 110 151V162H146V151C156 143 163 134 163 120C163 102 151 86 128 86Z" fill="#FFC84A" stroke="#24313C" stroke-width="6"/>
<path d="M113 175H143M116 163H140" stroke="#24313C" stroke-width="6" stroke-linecap="round"/>
<path d="M128 100V117M111 108L120 119M145 108L136 119" stroke="#fff" stroke-width="5" stroke-linecap="round"/>
<rect x="73" y="102" width="20" height="20" rx="5" fill="#FF647C" transform="rotate(-12 73 102)"/>
<rect x="164" y="139" width="20" height="20" rx="5" fill="#35C98D" transform="rotate(12 164 139)"/>

</svg>