<svg xmlns="http://www.w3.org/2000/svg" viewBox="0 0 256 256" width="256" height="256">
  <defs>
    <linearGradient id="bg" x1="28" y1="20" x2="228" y2="236" gradientUnits="userSpaceOnUse">
      <stop stop-color="#FFF8E7"/>
      <stop offset="1" stop-color="#FFD26A"/>
    </linearGradient>
    <linearGradient id="shine" x1="72" y1="55" x2="190" y2="206" gradientUnits="userSpaceOnUse">
      <stop stop-color="#FFFFFF" stop-opacity=".96"/>
      <stop offset="1" stop-color="#FFFFFF" stop-opacity=".72"/>
    </linearGradient>
    <filter id="shadow" x="-30%" y="-30%" width="160%" height="180%">
      <feDropShadow dx="0" dy="8" stdDeviation="8" flood-color="#15263A" flood-opacity=".17"/>
    </filter>
    <filter id="soft" x="-30%" y="-30%" width="160%" height="160%">
      <feGaussianBlur stdDeviation="4"/>
    </filter>
  </defs>
  <rect x="20" y="20" width="216" height="216" rx="52" fill="url(#bg)"/>
  <circle cx="76" cy="47" r="5" fill="#FFCF5C"/>
  <circle cx="94" cy="47" r="5" fill="#FF8FA3"/>
  <circle cx="112" cy="47" r="5" fill="#66D9B3"/>
  <rect x="51" y="65" width="154" height="132" rx="30" fill="url(#shine)" stroke="#E89A12" stroke-width="4" filter="url(#shadow)"/>
  
<rect x="78" y="94" width="101" height="70" rx="12" fill="#DDE5EA" stroke="#24313C" stroke-width="6"/>
<rect x="88" y="104" width="46" height="27" rx="7" fill="#fff"/>
<circle cx="151" cy="117" r="13" fill="#FFC84A"/>
<rect x="88" y="138" width="28" height="16" rx="5" fill="#fff"/>
<rect x="121" y="138" width="48" height="16" rx="5" fill="#fff"/>
<path d="M72 95V164M185 95V164" stroke="#E89A12" stroke-width="5" stroke-linecap="round"/>
<path d="M68 103H76M181 103H189" stroke="#E89A12" stroke-width="5" stroke-linecap="round"/>

<path d="M172 80H188V95H201V111H188V124H172V111H158V95H172V80Z" fill="#8B6DFF" stroke="#fff" stroke-width="4" stroke-linejoin="round"/>

</svg>