<svg xmlns="http://www.w3.org/2000/svg" viewBox="0 0 256 256" width="256" height="256">
  <defs>
    <linearGradient id="bg" x1="28" y1="20" x2="228" y2="236" gradientUnits="userSpaceOnUse">
      <stop stop-color="#F3EEFF"/>
      <stop offset="1" stop-color="#AA8CFF"/>
    </linearGradient>
    <linearGradient id="shine" x1="72" y1="55" x2="190" y2="206" gradientUnits="userSpaceOnUse">
      <stop stop-color="#FFFFFF" stop-opacity=".96"/>
      <stop offset="1" stop-color="#FFFFFF" stop-opacity=".72"/>
    </linearGradient>
    <filter id="shadow" x="-30%" y="-30%" width="160%" height="180%">
      <feDropShadow dx="0" dy="8" stdDeviation="8" flood-color="#15263A" flood-opacity=".17"/>
    </filter>
    <filter id="soft" x="-30%" y="-30%" width="160%" height="160%">
      <feGaussianBlur stdDeviation="4"/>
    </filter>
  </defs>
  <rect x="20" y="20" width="216" height="216" rx="52" fill="url(#bg)"/>
  <circle cx="76" cy="47" r="5" fill="#FFCF5C"/>
  <circle cx="94" cy="47" r="5" fill="#FF8FA3"/>
  <circle cx="112" cy="47" r="5" fill="#66D9B3"/>
  <rect x="51" y="65" width="154" height="132" rx="30" fill="url(#shine)" stroke="#6C4CE4" stroke-width="4" filter="url(#shadow)"/>
  
<rect x="75" y="91" width="91" height="63" rx="10" fill="#EAF0F5" stroke="#24313C" stroke-width="7"/>
<path d="M120 91V154M75 122H166" stroke="#AAB7C2" stroke-width="4"/>
<circle cx="98" cy="107" r="8" fill="#6C4CE4"/><circle cx="143" cy="107" r="8" fill="#35C98D"/>
<circle cx="98" cy="138" r="8" fill="#8B6DFF"/><circle cx="143" cy="138" r="8" fill="#FF647C"/>
<path d="M106 170H136M121 154V170" stroke="#24313C" stroke-width="7" stroke-linecap="round"/>
<circle cx="170" cy="101" r="21" fill="#6C4CE4"/><path d="M164 94L176 101L164 108V94Z" fill="#fff"/>

</svg>